# xmcd
#
# Track frame offsets:
#	150
#	13060
#	33443
#	46300
#	61053
#	77573
#	101835
#	110948
#	127688
#	138440
#	154270
#	165895
#
# Disc length: 2511 seconds
#
# Revision: 1
# Processed by: cddbd v1.4PL0 Copyright (c) Steve Scherf et al.
# Submitted via: audiograbber 1.81.03
#
DISCID=9209cd0c
DTITLE=Mike Garris - It's Been A Long Time Coming
DYEAR=1993
DGENRE=Bluegrass
TTITLE0=You'll Always Find Me Waiting Here
TTITLE1=Lonesome Feeling
TTITLE2=Written On The Marquee (At The Grand Ole Opry)
TTITLE3=Nights In White Satin
TTITLE4=Walk On By
TTITLE5=Racin' On The High Ridge
TTITLE6=It's Been A Long Time Coming
TTITLE7=In My Dreams
TTITLE8=Loneliness And Desperation
TTITLE9=Tattered Window Shade
TTITLE10=Long Hot Summer
TTITLE11=Will A Light Be Shining Bright Within Your Soul
EXTD=
EXTT0=
EXTT1=
EXTT2=
EXTT3=
EXTT4=
EXTT5=
EXTT6=
EXTT7=
EXTT8=
EXTT9=
EXTT10=
EXTT11=
PLAYORDER=
